<svg width="24" height="24" viewBox="0 0 24 24" fill="none" xmlns="http://www.w3.org/2000/svg">
<g id="solar:cup-first-line-duotone">
<g id="Group">
<path id="Vector" d="M12 16C6.23997 16 5.21997 10.26 5.03997 5.70598C4.98897 4.43998 4.96397 3.80598 5.43997 3.22098C5.91497 2.63498 6.48397 2.53898 7.62297 2.34698C9.06981 2.10998 10.5339 1.99391 12 1.99998C13.784 1.99998 15.253 2.15698 16.377 2.34698C17.516 2.53898 18.085 2.63498 18.561 3.22098C19.037 3.80698 19.011 4.43998 18.961 5.70598C18.781 10.26 17.761 16 12.001 16H12Z" stroke="#1E1E1E" stroke-width="1.5"/>
<path id="Vector_2" d="M11 8L12.5 6.5V10.5" stroke="#1E1E1E" stroke-width="1.5" stroke-linecap="round" stroke-linejoin="round"/>
<path id="Vector_3" opacity="0.5" d="M19 5L19.949 5.316C20.939 5.646 21.434 5.811 21.717 6.204C22 6.597 22 7.12 22 8.162V8.235C22 9.095 22 9.526 21.793 9.878C21.586 10.23 21.209 10.439 20.457 10.858L17.5 12.5M5 5L4.051 5.316C3.061 5.646 2.566 5.811 2.283 6.204C2 6.597 2 7.12 2 8.162V8.235C2 9.095 2 9.526 2.207 9.878C2.414 10.23 2.791 10.439 3.543 10.858L6.5 12.5" stroke="#1E1E1E" stroke-width="1.5"/>
<path id="Vector_4" opacity="0.5" d="M12 16V19" stroke="#1E1E1E" stroke-width="1.5" stroke-linecap="round"/>
<path id="Vector_5" d="M15.5 22H8.5L8.84 20.304C8.88529 20.0774 9.00768 19.8735 9.18634 19.7269C9.365 19.5803 9.58891 19.5001 9.82 19.5H14.18C14.4111 19.5001 14.635 19.5803 14.8137 19.7269C14.9923 19.8735 15.1147 20.0774 15.16 20.304L15.5 22Z" stroke="#1E1E1E" stroke-width="1.5" stroke-linecap="round" stroke-linejoin="round"/>
<path id="Vector_6" opacity="0.5" d="M18 22H6" stroke="#1E1E1E" stroke-width="1.5" stroke-linecap="round"/>
</g>
</g>
</svg>
