<svg width="24" height="24" viewBox="0 0 24 24" fill="none" xmlns="http://www.w3.org/2000/svg">
<g id="hugeicons:medal-second-place">
<g id="Group">
<path id="Vector" d="M5 15C5 11.134 8.022 8 11.75 8H12.25C15.978 8 19 11.134 19 15C19 18.866 15.978 22 12.25 22H11.75C8.022 22 5 18.866 5 15Z" stroke="#1E1E1E" stroke-width="1.5" stroke-linecap="round" stroke-linejoin="round"/>
<path id="Vector_2" d="M10.5 13.118C10.58 12.333 11.108 12 11.658 12H12.324C12.874 12 13.401 12.333 13.481 13.118C13.5054 13.3721 13.5054 13.6279 13.481 13.882C13.432 14.36 12.854 14.909 12.854 14.909L12 15.5C12 15.5 10.5 16.5 10.5 17.5C10.5 18.04 10.937 18 11.477 18H13.481M13.56 2L11 7.898M18 2L15.179 8.5M10.44 2L12 5.594M6 2L8.821 8.5" stroke="#1E1E1E" stroke-width="1.5" stroke-linecap="round" stroke-linejoin="round"/>
</g>
</g>
</svg>
