<svg width="24" height="24" viewBox="0 0 24 24" fill="none" xmlns="http://www.w3.org/2000/svg">
<g id="hugeicons:medal-third-place">
<g id="Group">
<path id="Vector" d="M5 15C5 11.134 8.022 8 11.75 8H12.25C15.978 8 19 11.134 19 15C19 18.866 15.978 22 12.25 22H11.75C8.022 22 5 18.866 5 15Z" stroke="#1E1E1E" stroke-width="1.5" stroke-linecap="round" stroke-linejoin="round"/>
<path id="Vector_2" d="M10.5 13.118C10.58 12.333 11.107 12 11.658 12H12.324C12.874 12 13.401 12.333 13.481 13.118C13.5054 13.3721 13.5054 13.6279 13.481 13.882C13.415 14.53 12.971 15 12.491 15M12.491 15C12.971 15 13.415 15.47 13.481 16.118C13.5054 16.3721 13.5054 16.6279 13.481 16.882C13.401 17.667 12.874 18 12.324 18H11.658C11.107 18 10.58 17.667 10.5 16.882M12.491 15H12.431M13.56 2L11 7.898M18 2L15.179 8.5M10.44 2L12 5.594M6 2L8.821 8.5" stroke="#1E1E1E" stroke-width="1.5" stroke-linecap="round" stroke-linejoin="round"/>
</g>
</g>
</svg>
