<svg width="25" height="24" viewBox="0 0 25 24" fill="none" xmlns="http://www.w3.org/2000/svg">
<g id="Logo Instagram" clip-path="url(#clip0_13_942)">
<path id="Icon" d="M12.8811 2.163C16.0851 2.163 16.4651 2.175 17.7311 2.233C20.9831 2.381 22.5021 3.924 22.6501 7.152C22.7081 8.417 22.7191 8.797 22.7191 12.001C22.7191 15.206 22.7071 15.585 22.6501 16.85C22.5011 20.075 20.9861 21.621 17.7311 21.769C16.4651 21.827 16.0871 21.839 12.8811 21.839C9.6771 21.839 9.2971 21.827 8.0321 21.769C4.7721 21.62 3.2611 20.07 3.1131 16.849C3.0551 15.584 3.0431 15.205 3.0431 12C3.0431 8.796 3.0561 8.417 3.1131 7.151C3.2621 3.924 4.7771 2.38 8.0321 2.232C9.2981 2.175 9.6771 2.163 12.8811 2.163ZM12.8811 0C9.6221 0 9.2141 0.014 7.9341 0.072C3.5761 0.272 1.1541 2.69 0.954104 7.052C0.895104 8.333 0.881104 8.741 0.881104 12C0.881104 15.259 0.895104 15.668 0.953104 16.948C1.1531 21.306 3.5711 23.728 7.9331 23.928C9.2141 23.986 9.6221 24 12.8811 24C16.1401 24 16.5491 23.986 17.8291 23.928C22.1831 23.728 24.6111 21.31 24.8081 16.948C24.8671 15.668 24.8811 15.259 24.8811 12C24.8811 8.741 24.8671 8.333 24.8091 7.053C24.6131 2.699 22.1921 0.273 17.8301 0.073C16.5491 0.014 16.1401 0 12.8811 0ZM12.8811 5.838C9.4781 5.838 6.7191 8.597 6.7191 12C6.7191 15.403 9.4781 18.163 12.8811 18.163C16.2841 18.163 19.0431 15.404 19.0431 12C19.0431 8.597 16.2841 5.838 12.8811 5.838ZM12.8811 16C10.6721 16 8.8811 14.21 8.8811 12C8.8811 9.791 10.6721 8 12.8811 8C15.0901 8 16.8811 9.791 16.8811 12C16.8811 14.21 15.0901 16 12.8811 16ZM19.2871 4.155C18.4911 4.155 17.8461 4.8 17.8461 5.595C17.8461 6.39 18.4911 7.035 19.2871 7.035C20.0821 7.035 20.7261 6.39 20.7261 5.595C20.7261 4.8 20.0821 4.155 19.2871 4.155Z" fill="#5A5A5A"/>
</g>
<defs>
<clipPath id="clip0_13_942">
<rect width="24" height="24" fill="white" transform="translate(0.881104)"/>
</clipPath>
</defs>
</svg>
