<svg width="25" height="24" viewBox="0 0 25 24" fill="none" xmlns="http://www.w3.org/2000/svg">
<g id="LinkedIn" clip-path="url(#clip0_13_946)">
<path id="Icon" d="M19.8811 0H5.8811C3.1201 0 0.881104 2.239 0.881104 5V19C0.881104 21.761 3.1201 24 5.8811 24H19.8811C22.6431 24 24.8811 21.761 24.8811 19V5C24.8811 2.239 22.6431 0 19.8811 0ZM8.8811 19H5.8811V8H8.8811V19ZM7.3811 6.732C6.4151 6.732 5.6311 5.942 5.6311 4.968C5.6311 3.994 6.4151 3.204 7.3811 3.204C8.3471 3.204 9.1311 3.994 9.1311 4.968C9.1311 5.942 8.3481 6.732 7.3811 6.732ZM20.8811 19H17.8811V13.396C17.8811 10.028 13.8811 10.283 13.8811 13.396V19H10.8811V8H13.8811V9.765C15.2771 7.179 20.8811 6.988 20.8811 12.241V19Z" fill="#5A5A5A"/>
</g>
<defs>
<clipPath id="clip0_13_946">
<rect width="24" height="24" fill="white" transform="translate(0.881104)"/>
</clipPath>
</defs>
</svg>
